<svg width="12" height="14" viewBox="0 0 12 14" fill="none" xmlns="http://www.w3.org/2000/svg">
<path d="M11.5138 6.34437C11.7455 6.06406 11.8273 5.65267 11.7273 5.27025C11.6272 4.88783 11.3663 4.61483 11.0458 4.5569L8.19613 4.04281C8.07476 4.02086 7.96989 3.92635 7.91569 3.78971L6.64169 0.584023C6.49864 0.223836 6.2083 0 5.88473 0C5.5614 0 5.27106 0.223836 5.12801 0.584023L3.85377 3.79C3.79957 3.92665 3.69447 4.02116 3.5731 4.0431L0.723442 4.55719C0.403173 4.61483 0.142057 4.88812 0.0418994 5.27054C-0.0580224 5.65297 0.0237532 6.06436 0.255412 6.34467L2.31724 8.83993C2.40514 8.94643 2.44544 9.09976 2.4247 9.24956L1.93829 12.773C1.89517 13.0832 1.96068 13.3848 2.12235 13.6227C2.37357 13.9934 2.81214 14.1064 3.16281 13.8776L5.71128 12.2139C5.8178 12.1445 5.9519 12.1451 6.05818 12.2139L8.6069 13.8776C8.73086 13.9586 8.86306 13.9996 8.99951 13.9996C9.24861 13.9996 9.48475 13.8621 9.64712 13.6227C9.80902 13.3848 9.8743 13.0826 9.83117 12.773L9.34453 9.24956C9.32379 9.09946 9.36409 8.94643 9.45199 8.83993L11.5138 6.34437Z" fill="#9D2929"/>
</svg>
