<svg width="13" height="14" viewBox="0 0 13 14" fill="none" xmlns="http://www.w3.org/2000/svg">
<path d="M12.36 6.34479C12.5917 6.06448 12.6734 5.65308 12.5735 5.27065C12.4734 4.88822 12.2125 4.61522 11.892 4.55728L9.04225 4.04318C8.92088 4.02124 8.81601 3.92673 8.76181 3.79008L7.48778 0.584035C7.34473 0.223841 7.05438 0 6.73081 0C6.40747 0 6.11712 0.223841 5.97407 0.584035L4.69981 3.79008C4.6456 3.92673 4.5405 4.02124 4.41913 4.04318L1.56941 4.55758C1.24914 4.61522 0.988251 4.88822 0.888092 5.27065C0.788168 5.65308 0.869945 6.06448 1.10161 6.34479L3.16348 8.84011C3.25138 8.94661 3.29168 9.09994 3.27094 9.24975L2.78429 12.7736C2.72961 13.1695 2.85805 13.5618 3.11988 13.7983C3.38147 14.035 3.72202 14.0657 4.00883 13.8781L6.55735 12.2144C6.666 12.1436 6.79562 12.1436 6.90426 12.2144L9.45302 13.8781C9.57746 13.9595 9.71226 13.9996 9.84636 13.9996C10.0205 13.9996 10.194 13.932 10.342 13.7983C10.6038 13.5618 10.7322 13.1695 10.6776 12.7736L10.1907 9.25004C10.1699 9.09994 10.2102 8.94691 10.2981 8.8404L12.36 6.34479ZM9.7264 9.34894L10.2131 12.8725C10.2376 13.0498 10.1822 13.2192 10.0648 13.3251C9.94722 13.4307 9.80087 13.4436 9.67243 13.3605L7.12367 11.6965C7.00088 11.6166 6.86561 11.5762 6.73081 11.5762C6.596 11.5762 6.46097 11.6166 6.33795 11.6968L3.78965 13.3605C3.66074 13.4436 3.51439 13.4307 3.39703 13.3251C3.27966 13.2192 3.22452 13.0501 3.24879 12.8725L3.73545 9.34894C3.78235 9.00894 3.69161 8.66191 3.49271 8.42139L1.4306 5.92579C1.32667 5.79997 1.29132 5.62265 1.33633 5.45148C1.38111 5.28001 1.49353 5.16239 1.63705 5.13634L4.48653 4.62224C4.76155 4.57279 4.99934 4.35861 5.12213 4.04903L6.39639 0.842988C6.46049 0.681471 6.58563 0.585205 6.73057 0.585205C6.87574 0.585205 7.00065 0.681471 7.06499 0.842988L8.33925 4.04903C8.46203 4.35861 8.69959 4.57279 8.97462 4.62224L11.8243 5.13634C11.9679 5.16239 12.0803 5.28001 12.125 5.45148C12.1698 5.62265 12.1347 5.79997 12.0308 5.92579L9.9689 8.4211C9.77 8.66191 9.67927 9.00865 9.7264 9.34894Z" fill="#9D2929"/>
</svg>
